Coordinates
version=1
nRows=4
nColumns=107
inDegrees=yes

Units are S.I. units (second, meters, Newtons, ...)
If the header above contains a line with 'inDegrees', this indicates whether rotational values are in degrees (yes) or radians (no).

endheader
time	sternoclavicular_r2	sternoclavicular_r3	unrotscap_r3	unrotscap_r2	acromioclavicular_r2	acromioclavicular_r3	acromioclavicular_r1	unrothum_r1	unrothum_r3	unrothum_r2	elv_angle	shoulder_elv	shoulder1_r2	shoulder_rot	elbow_flexion	pro_sup	deviation	flexion	proximal_distal_r1	proximal_distal_r3	cmc_flexion	cmc_abduction	mp_flexion	ip_flexion	mcp2_flexion	mcp2_abduction	pm2_flexion	md2_flexion	mcp3_flexion	mcp3_abduction	pm3_flexion	md3_flexion	mcp4_flexion	mcp4_abduction	pm4_flexion	md4_flexion	mcp5_flexion	mcp5_abduction	pm5_flexion	md5_flexion	bicpt_tx	bicpt_ty	bicpt_tz	bicpt2_tx	bicpt2_ty	bicpt2_tz	ptpt_tx	ptpt_ty	ptpt_tz	FCUpt_tx	FCUpt_ty	FCUpt_tz	EDCpt_tx	EDCpt_ty	EDCpt_tz	APLpt_tx	APLpt_ty	APLpt_tz	FPLpt_tx	FPLpt_ty	FPLpt_tz	FPLpt2_tx	FPLpt2_ty	FPLpt2_tz	PEC1pt2_tx	PEC1pt2_ty	PEC1pt2_tz	PEC1pt3_tx	PEC1pt3_ty	PEC1pt3_tz	PEC2pt2_tx	PEC2pt2_ty	PEC2pt2_tz	PEC2pt3_tx	PEC2pt3_ty	PEC2pt3_tz	PEC3pt2_tx	PEC3pt2_ty	PEC3pt2_tz	PEC3pt3_tx	PEC3pt3_ty	PEC3pt3_tz	DELT2pt2a_tx	DELT2pt2a_ty	DELT2pt2a_tz	DELT2pt2_tx	DELT2pt2_ty	DELT2pt2_tz	LAT1pt2_tx	LAT1pt2_ty	LAT1pt2_tz	LAT1pt3_tx	LAT1pt3_ty	LAT1pt3_tz	LAT2pt2_tx	LAT2pt2_ty	LAT2pt2_tz	LAT2pt3_tx	LAT2pt3_ty	LAT2pt3_tz	LAT3pt2_tx	LAT3pt2_ty	LAT3pt2_tz	LAT3pt3_tx	LAT3pt3_ty	LAT3pt3_tz
      1.60000000	     -0.33348101	      0.14124682	     -0.14124682	      0.33348101	     -0.06752312	      0.54569811	      0.24528755	     -0.24528755	     -0.54569811	      0.06752312	     96.60610777	     78.95459334	     -1.68609466	    -11.95543477	     31.24194422	     49.51778637	      0.09735946	     -0.42864792	      0.12437199	     -0.21432396	     33.52156628	    -19.08422716	    -11.12734190	      0.75313958	      7.85844918	     11.10196096	     35.95822461	      1.79642440	     13.82103730	      2.40371395	     30.22775455	     24.29351875	     24.49285826	     -2.36742445	     28.72448919	     28.02531867	     40.59249062	    -13.82912782	     13.21133449	      5.30867504	      0.00093339	     -0.03118080	     -0.00487677	      0.01648859	     -0.01868703	     -0.00639050	      0.00389119	     -0.06726584	     -0.00403892	      0.00875245	     -0.18328421	     -0.00041988	     -0.00594212	      0.00178139	      0.00005355	      0.00028470	      0.00011388	      0.00056940	      0.00036441	      0.00109324	      0.00061495	     -0.00001208	     -0.00021377	     -0.00025652	      0.00258796	      0.00907979	      0.00631637	     -0.00846569	      0.02044048	     -0.01938776	      0.00258796	      0.00907979	      0.00631637	      0.00057023	      0.01894912	     -0.00995706	      0.00405204	      0.00504915	      0.01621643	      0.00000000	      0.00834131	      0.00000000	     -0.00741297	     -0.03425755	     -0.00688077	      0.00870134	     -0.00019870	     -0.00104828	     -0.00092114	      0.01544002	     -0.00631637	      0.00254409	      0.02228276	     -0.01842275	     -0.00618478	      0.01337843	     -0.00565842	     -0.01289593	      0.02824822	     -0.03162573	     -0.02421276	      0.01495752	     -0.00758842	     -0.01605411	      0.03263459	     -0.03952119
      1.63333333	     -0.33352484	      0.14126538	     -0.14126538	      0.33352484	     -0.06753200	      0.54576984	      0.24531979	     -0.24531979	     -0.54576984	      0.06753200	     96.41250244	     78.96497108	     -1.68271561	    -11.80983927	     31.75827140	     49.59103791	      0.11279175	     -0.45007466	      0.14266181	     -0.22503733	     30.54794880	    -18.75390841	    -12.76450818	      0.43961209	      9.72724808	     10.93524750	     37.82891415	      2.55903252	     16.06298289	      3.10063921	     31.38542226	     24.63873960	     26.40465068	     -2.23389486	     30.69029713	     28.63855620	     41.84124195	    -13.61887732	     15.01731716	      5.51511106	      0.00095046	     -0.03123998	     -0.00488631	      0.01648711	     -0.01882729	     -0.00638169	      0.00388578	     -0.06726934	     -0.00404482	      0.00876005	     -0.18328249	     -0.00041987	     -0.00595091	      0.00178459	      0.00005264	      0.00029085	      0.00011634	      0.00058170	      0.00037229	      0.00111686	      0.00062824	     -0.00000926	     -0.00024527	     -0.00029432	      0.00258830	      0.00908098	      0.00631720	     -0.00846681	      0.02044317	     -0.01939030	      0.00258830	      0.00908098	      0.00631720	      0.00057030	      0.01895161	     -0.00995837	      0.00405242	      0.00504982	      0.01621732	      0.00000000	      0.00834352	      0.00000000	     -0.00741394	     -0.03426205	     -0.00688260	      0.00860150	     -0.00019475	     -0.00101818	     -0.00092126	      0.01544205	     -0.00631720	      0.00254443	      0.02228569	     -0.01842518	     -0.00618559	      0.01338019	     -0.00565916	     -0.01289762	      0.02825194	     -0.03162988	     -0.02421594	      0.01495949	     -0.00758942	     -0.01605622	      0.03263888	     -0.03952639
      1.66666667	     -0.33358410	      0.14129048	     -0.14129048	      0.33358410	     -0.06754399	      0.54586680	      0.24536337	     -0.24536337	     -0.54586680	      0.06754399	     96.22299864	     78.97899975	     -1.67940814	    -11.74736962	     32.17489400	     49.87527191	      0.12451593	     -0.46565568	      0.15629533	     -0.23282784	     28.13232166	    -19.05324907	    -14.12332962	      0.04008497	     10.06547138	     10.66999947	     38.37822503	      2.78631767	     16.75047525	      3.71561650	     31.69941801	     24.74050594	     26.99752960	     -1.71339230	     31.27586333	     28.81661351	     42.03801488	    -13.35794521	     15.62056263	      5.59916521	      0.00096425	     -0.03128773	     -0.00489400	      0.01648130	     -0.01894047	     -0.00634746	      0.00386478	     -0.06728292	     -0.00406772	      0.00878952	     -0.18327579	     -0.00041980	     -0.00598502	      0.00179701	      0.00004910	      0.00029484	      0.00011794	      0.00058968	      0.00037740	      0.00113219	      0.00063686	     -0.00000570	     -0.00026363	     -0.00031635	      0.00258876	      0.00908259	      0.00631833	     -0.00846831	      0.02044680	     -0.01939375	      0.00258876	      0.00908259	      0.00631833	      0.00057040	      0.01895498	     -0.00996014	      0.00405294	      0.00505071	      0.01621853	      0.00000000	      0.00834651	      0.00000000	     -0.00741526	     -0.03426814	     -0.00688508	      0.00855859	     -0.00019306	     -0.00100537	     -0.00092142	      0.01544480	     -0.00631833	      0.00254488	      0.02228965	     -0.01842845	     -0.00618669	      0.01338256	     -0.00566017	     -0.01289991	      0.02825695	     -0.03163550	     -0.02422025	      0.01496215	     -0.00759077	     -0.01605908	      0.03264468	     -0.03953341
      1.70000000	     -0.33341186	      0.14121753	     -0.14121753	      0.33341186	     -0.06750912	      0.54558496	      0.24523669	     -0.24523669	     -0.54558496	      0.06750912	     96.18215822	     78.93822248	     -1.67869534	    -11.83057217	     32.27570544	     50.16057043	      0.13978804	     -0.48199120	      0.17371807	     -0.24099560	     26.47240694	    -19.08631514	    -15.06826106	     -0.25817919	     10.05882933	     10.57524160	     38.67789314	      2.92354212	     16.96847129	      4.02353462	     31.81339980	     24.78492049	     27.20867676	     -1.56008418	     31.54472512	     28.89740011	     41.93316408	    -13.20321548	     15.93326047	      5.62353736	      0.00096758	     -0.03129929	     -0.00489586	      0.01647530	     -0.01896785	     -0.00631300	      0.00384370	     -0.06729655	     -0.00409070	      0.00881912	     -0.18326904	     -0.00041967	     -0.00601925	      0.00180950	      0.00004550	      0.00029859	      0.00011944	      0.00059718	      0.00038220	      0.00114659	      0.00064496	     -0.00000272	     -0.00027249	     -0.00032698	      0.00258742	      0.00907790	      0.00631506	     -0.00846394	      0.02043625	     -0.01938374	      0.00258742	      0.00907790	      0.00631506	      0.00057011	      0.01894519	     -0.00995500	      0.00405144	      0.00504811	      0.01621502	      0.00000000	      0.00833783	      0.00000000	     -0.00741143	     -0.03425045	     -0.00687787	      0.00861572	     -0.00019532	     -0.00102246	     -0.00092095	      0.01543682	     -0.00631506	      0.00254357	      0.02227814	     -0.01841893	     -0.00618350	      0.01337565	     -0.00565724	     -0.01289325	      0.02824237	     -0.03161917	     -0.02420774	      0.01495442	     -0.00758685	     -0.01605079	      0.03262783	     -0.03951300
